<svg width="233" height="60" viewBox="0 0 233 60" fill="none" xmlns="http://www.w3.org/2000/svg">
<path d="M109.417 17.4923C108.176 17.4535 107.168 18.4231 107.129 19.6254C107.129 19.6642 107.129 19.7418 107.129 19.7806V30.7955C101.816 26.5292 94.0198 27.3825 89.7534 32.696C88.0081 34.9068 87.0385 37.6217 87.0385 40.453C86.9221 47.2792 92.352 52.903 99.1782 53.0194C106.004 53.1357 111.628 47.7058 111.744 40.8796C111.744 40.7245 111.744 40.6082 111.744 40.453V19.7806C111.744 19.16 111.512 18.5783 111.085 18.1516C110.62 17.725 110.038 17.4923 109.417 17.4923ZM106.509 43.4395C105.733 45.3011 104.259 46.775 102.397 47.5895C100.458 48.4039 98.2861 48.4039 96.3468 47.5895C94.4852 46.8138 93.0501 45.3011 92.2744 43.4782C91.4599 41.5778 91.4599 39.4058 92.2744 37.4666C93.0501 35.6049 94.524 34.1311 96.3468 33.3553C98.2861 32.5409 100.458 32.5409 102.397 33.3553C104.259 34.1698 105.733 35.6437 106.509 37.5054C107.323 39.367 107.323 41.539 106.509 43.4395Z" fill="#2496ED"/>
<path d="M135.209 31.7262C130.4 26.9168 122.565 26.9168 117.756 31.7262C115.429 34.0533 114.149 37.1949 114.149 40.4528C114.033 47.279 119.463 52.9028 126.289 53.0191C133.115 53.1355 138.739 47.7056 138.855 40.8794C138.855 40.7243 138.855 40.6079 138.855 40.4528C138.855 38.8238 138.545 37.2336 137.924 35.721C137.304 34.2084 136.373 32.8509 135.209 31.7262ZM133.619 43.4004C133.231 44.3313 132.65 45.1458 131.951 45.8439C131.253 46.542 130.4 47.1238 129.508 47.5117C127.569 48.3262 125.397 48.3262 123.458 47.5117C121.596 46.736 120.122 45.2233 119.346 43.4004C118.532 41.5 118.532 39.328 119.346 37.3888C120.122 35.5271 121.596 34.0921 123.458 33.2776C125.397 32.4631 127.569 32.4631 129.508 33.2776C130.439 33.6654 131.253 34.2472 131.951 34.9453C132.65 35.6434 133.231 36.4967 133.619 37.3888C134.434 39.3668 134.434 41.5388 133.619 43.4004Z" fill="#2496ED"/>
<path d="M186.289 30.3685C186.289 30.0583 186.212 29.748 186.095 29.4765C185.979 29.205 185.785 28.9723 185.591 28.7396C185.397 28.5456 185.126 28.3517 184.854 28.2354C184.583 28.119 184.272 28.0414 183.962 28.0414C183.535 28.0414 183.109 28.1578 182.721 28.3905L169.534 36.962V19.819C169.534 19.1984 169.301 18.6167 168.875 18.19C168.448 17.7634 167.866 17.4919 167.246 17.4919C165.966 17.4919 164.957 18.5003 164.919 19.7802C164.919 19.7802 164.919 19.7802 164.919 19.819V50.4592C164.919 51.0797 165.151 51.6615 165.578 52.0882C166.005 52.5536 166.586 52.7863 167.207 52.7863C167.827 52.7863 168.409 52.5536 168.836 52.0882C169.263 51.6615 169.534 51.0797 169.495 50.4592V42.5083L172.171 40.7629L182.372 52.2045C182.798 52.5924 183.341 52.8251 183.923 52.7863C184.234 52.7863 184.544 52.7475 184.815 52.5924C185.087 52.476 185.319 52.3209 185.552 52.0882C185.746 51.8555 185.94 51.6227 186.056 51.3512C186.173 51.0797 186.25 50.7695 186.25 50.4592C186.25 49.8774 186.018 49.2956 185.63 48.869L176.166 38.2031L185.397 32.1914C186.018 31.8036 186.328 31.1055 186.289 30.3685Z" fill="#2496ED"/>
<path d="M148.008 34.9451C148.707 34.247 149.56 33.6652 150.491 33.2774C151.46 32.8895 152.469 32.6568 153.516 32.6568C154.447 32.6568 155.339 32.8119 156.192 33.1222C157.045 33.4713 157.86 33.9367 158.558 34.5573C158.985 34.9063 159.528 35.0615 160.071 35.0615C160.691 35.1003 161.312 34.8675 161.738 34.4021C162.165 33.9755 162.398 33.3549 162.398 32.7344C162.398 32.075 162.126 31.4157 161.583 30.989C159.372 29.011 156.502 27.925 153.516 28.0026C146.69 28.0026 141.143 33.5489 141.143 40.375C141.143 47.2012 146.651 52.7087 153.438 52.7474C156.425 52.7474 159.295 51.7003 161.544 49.761C162.01 49.3344 162.281 48.7138 162.281 48.0545C162.32 46.8133 161.35 45.8049 160.148 45.7661C160.109 45.7661 160.032 45.7661 159.993 45.7661C159.45 45.7661 158.946 45.9213 158.519 46.2316C157.821 46.8521 157.045 47.3175 156.192 47.6666C155.339 47.9769 154.408 48.132 153.516 48.132C152.469 48.132 151.46 47.9381 150.491 47.5115C149.56 47.1236 148.745 46.5418 148.008 45.8437C144.983 42.8185 144.983 37.9316 147.97 34.9063C148.008 34.9839 148.008 34.9839 148.008 34.9451Z" fill="#2496ED"/>
<path d="M232.094 29.6318C231.629 29.2051 231.124 28.8949 230.543 28.7009C229.883 28.4682 229.185 28.3131 228.487 28.2355C227.789 28.1579 227.091 28.1192 226.393 28.1192C224.996 28.1192 223.561 28.3519 222.243 28.8561C220.924 29.3215 219.722 30.0196 218.636 30.8729V30.4075C218.597 29.1276 217.511 28.1579 216.231 28.1967C215.029 28.2355 214.059 29.2051 214.02 30.4075V50.5369C214.059 51.8168 215.145 52.7864 216.425 52.7477C217.627 52.7089 218.597 51.7393 218.636 50.5369V40.4916C218.636 39.4444 218.83 38.436 219.256 37.4664C219.644 36.5355 220.187 35.721 220.924 35.0229C221.622 34.3248 222.475 33.743 223.367 33.3551C224.337 32.9673 225.346 32.7346 226.393 32.7346C227.44 32.7346 228.448 32.9285 229.418 33.2776C229.728 33.4327 230.039 33.5103 230.388 33.5103C230.698 33.5103 231.008 33.4715 231.28 33.3163C231.551 33.2 231.784 33.0449 232.017 32.8121C232.21 32.6182 232.404 32.3467 232.521 32.0752C232.637 31.8037 232.715 31.4935 232.715 31.1832C232.753 30.6014 232.521 30.0584 232.094 29.6318Z" fill="#2496ED"/>
<path d="M210.685 35.721C208.707 31.1444 204.208 28.1579 199.243 28.1192C192.417 28.1192 186.91 33.6266 186.871 40.4528C186.871 47.279 192.417 52.8252 199.243 52.8252C202.191 52.8252 205.061 51.778 207.311 49.8388C207.349 49.8 207.388 49.7612 207.388 49.7612C207.582 49.6061 207.776 49.4121 207.892 49.1794C208.629 48.0935 208.358 46.6584 207.311 45.9215C206.418 45.3397 205.255 45.4561 204.479 46.193C204.402 46.2706 204.169 46.4645 204.169 46.5033L204.13 46.542C203.471 47.085 202.734 47.5505 201.919 47.822C201.066 48.1322 200.174 48.2874 199.243 48.2486C198.39 48.2486 197.576 48.1322 196.761 47.8607C195.985 47.5892 195.248 47.2402 194.589 46.736C193.93 46.2706 193.348 45.6888 192.883 45.0294C192.378 44.3701 192.029 43.5944 191.797 42.8187H209.25C209.87 42.8187 210.452 42.586 210.879 42.1593C211.344 41.7327 211.577 41.1509 211.538 40.5304C211.577 38.8626 211.267 37.2336 210.685 35.721ZM191.797 38.2033C192.029 37.3888 192.378 36.6519 192.883 35.9925C193.348 35.3332 193.93 34.7514 194.589 34.286C195.248 33.8206 195.985 33.4327 196.761 33.1612C197.537 32.8897 198.39 32.7734 199.204 32.7734C200.019 32.7734 200.872 32.8897 201.648 33.1612C203.199 33.6654 204.557 34.6738 205.526 35.9925C206.031 36.6519 206.38 37.4276 206.651 38.2033H191.797Z" fill="#2496ED"/>
<path d="M224.221 49.4509C223.329 49.4509 222.631 50.1878 222.631 51.0799C222.631 51.972 223.368 52.6701 224.26 52.6701C225.152 52.6701 225.85 51.9332 225.85 51.0799C225.85 50.1491 225.113 49.4509 224.221 49.4509ZM224.221 52.321C223.523 52.3598 222.941 51.8168 222.902 51.1187C222.863 50.4206 223.406 49.8388 224.104 49.8C224.803 49.7612 225.384 50.3042 225.423 51.0023C225.423 51.0411 225.423 51.0411 225.423 51.0799C225.462 51.7393 224.919 52.321 224.26 52.321C224.26 52.321 224.26 52.321 224.221 52.321Z" fill="#2496ED"/>
<path d="M224.609 51.0799C224.803 51.0411 224.919 50.886 224.919 50.6921C224.919 50.5369 224.88 50.4206 224.764 50.343C224.609 50.2654 224.415 50.2266 224.221 50.2266C224.027 50.2266 223.794 50.2266 223.6 50.2654V51.8556H223.949V51.235H224.104C224.298 51.235 224.415 51.3126 224.453 51.4678C224.492 51.5841 224.531 51.7393 224.57 51.8556H224.958C224.88 51.7393 224.841 51.5841 224.841 51.4678C224.88 51.3126 224.764 51.1575 224.609 51.0799ZM224.143 50.9635H223.949V50.4981C224.027 50.4981 224.104 50.4981 224.143 50.4981C224.376 50.4981 224.492 50.6145 224.492 50.7308C224.531 50.886 224.337 51.0023 224.143 50.9635Z" fill="#2496ED"/>
<path d="M82.8109 22.6888C82.5782 22.4949 80.4838 20.9047 75.9848 20.9047C74.8212 20.9047 73.6189 21.021 72.4553 21.215C71.6021 15.2808 66.6764 12.4108 66.4825 12.2556L65.2801 11.5575L64.5044 12.6823C63.5348 14.1949 62.7979 15.9014 62.3712 17.6467C61.5568 21.021 62.061 24.2014 63.7675 26.9164C61.7119 28.0799 58.3764 28.3514 57.6783 28.3902H2.60365C1.16861 28.3902 0.0050621 29.5537 0.0050621 30.9888C-0.0725078 35.7981 0.741976 40.6075 2.40973 45.1453C4.31019 50.1098 7.14149 53.7944 10.7873 56.0439C14.8985 58.5649 21.6083 60 29.1713 60C32.5844 60 35.9975 59.6897 39.3718 59.0692C44.0648 58.2159 48.5638 56.5869 52.7138 54.221C56.1269 52.243 59.1909 49.722 61.7895 46.7743C66.1722 41.8486 68.7708 36.3411 70.6712 31.4542C70.9427 31.4542 71.1754 31.4542 71.4469 31.4542C76.2175 31.4542 79.1651 29.5537 80.7941 27.9248C81.8801 26.9164 82.6946 25.6752 83.2763 24.279L83.6254 23.2706L82.8109 22.6888Z" fill="#2496ED"/>
<path d="M7.72325 26.8002H15.0924C15.4415 26.8002 15.7517 26.5287 15.7517 26.1408V19.5473C15.7517 19.1983 15.4802 18.888 15.0924 18.888H7.72325C7.37419 18.888 7.06391 19.1595 7.06391 19.5473V26.1408C7.10269 26.5287 7.37419 26.8002 7.72325 26.8002Z" fill="#2496ED"/>
<path d="M17.8849 26.8002H25.2541C25.6031 26.8002 25.9134 26.5287 25.9134 26.1408V19.5473C25.9134 19.1983 25.6419 18.888 25.2541 18.888H17.8849C17.5359 18.888 17.2256 19.1595 17.2256 19.5473V26.1408C17.2644 26.5287 17.5359 26.8002 17.8849 26.8002Z" fill="#2496ED"/>
<path d="M28.2405 26.8002H35.6096C35.9587 26.8002 36.269 26.5287 36.269 26.1408V19.5473C36.269 19.1983 35.9975 18.888 35.6096 18.888H28.2405C27.8914 18.888 27.5811 19.1595 27.5811 19.5473V26.1408C27.5811 26.5287 27.8526 26.8002 28.2405 26.8002Z" fill="#2496ED"/>
<path d="M38.4409 26.8002H45.8101C46.1592 26.8002 46.4694 26.5287 46.4694 26.1408V19.5473C46.4694 19.1983 46.1979 18.888 45.8101 18.888H38.4409C38.0919 18.888 37.7816 19.1595 37.7816 19.5473V26.1408C37.7816 26.5287 38.0919 26.8002 38.4409 26.8002Z" fill="#2496ED"/>
<path d="M17.8849 17.3759H25.2541C25.6031 17.3759 25.9134 17.0656 25.9134 16.7165V10.1231C25.9134 9.77399 25.6419 9.4637 25.2541 9.4637H17.8849C17.5359 9.4637 17.2256 9.7352 17.2256 10.1231V16.7165C17.2644 17.0656 17.5359 17.3759 17.8849 17.3759Z" fill="#2496ED"/>
<path d="M28.2405 17.3759H35.6096C35.9587 17.3759 36.269 17.0656 36.269 16.7165V10.1231C36.269 9.77399 35.9975 9.4637 35.6096 9.4637H28.2405C27.8914 9.4637 27.5811 9.7352 27.5811 10.1231V16.7165C27.5811 17.0656 27.8526 17.3759 28.2405 17.3759Z" fill="#2496ED"/>
<path d="M38.4409 17.3759H45.8101C46.1592 17.3759 46.4694 17.0656 46.4694 16.7165V10.1231C46.4694 9.77399 46.1592 9.4637 45.8101 9.4637H38.4409C38.0919 9.4637 37.7816 9.7352 37.7816 10.1231V16.7165C37.7816 17.0656 38.0919 17.3759 38.4409 17.3759Z" fill="#2496ED"/>
<path d="M38.4409 7.91215H45.8101C46.1592 7.91215 46.4694 7.64066 46.4694 7.25281V0.65935C46.4694 0.310285 46.1592 0 45.8101 0H38.4409C38.0919 0 37.7816 0.2715 37.7816 0.65935V7.25281C37.7816 7.60187 38.0919 7.91215 38.4409 7.91215Z" fill="#2496ED"/>
<path d="M48.719 26.8002H56.0881C56.4372 26.8002 56.7474 26.5287 56.7474 26.1408V19.5473C56.7474 19.1983 56.4759 18.888 56.0881 18.888H48.719C48.3699 18.888 48.0596 19.1595 48.0596 19.5473V26.1408C48.0984 26.5287 48.3699 26.8002 48.719 26.8002Z" fill="#2496ED"/>
</svg>
